<svg width="24" height="24" viewBox="0 0 24 24" fill="none" xmlns="http://www.w3.org/2000/svg">
<path fill-rule="evenodd" clip-rule="evenodd" d="M17.5 7H6.5C6.22386 7 6 7.22386 6 7.5V13.9906L8.26518 12.5748C8.75877 12.2663 9.39997 12.3393 9.81156 12.7509L11.4378 14.3772L14.5957 10.4298C15.0331 9.88308 15.8341 9.80217 16.372 10.2504L18 11.6071V7.5C18 7.22386 17.7761 7 17.5 7ZM6 16.5V15.7594L8.89153 13.9522L10.5747 15.6353C11.1015 16.1621 11.9692 16.1141 12.4346 15.5323L15.6077 11.566L18 13.5596V16.5C18 16.7761 17.7761 17 17.5 17H6.5C6.22386 17 6 16.7761 6 16.5ZM6.5 5.5C5.39543 5.5 4.5 6.39543 4.5 7.5V16.5C4.5 17.6046 5.39543 18.5 6.5 18.5H17.5C18.6046 18.5 19.5 17.6046 19.5 16.5V7.5C19.5 6.39543 18.6046 5.5 17.5 5.5H6.5ZM10.5 11.5C11.3284 11.5 12 10.8284 12 10C12 9.17157 11.3284 8.5 10.5 8.5C9.67157 8.5 9 9.17157 9 10C9 10.8284 9.67157 11.5 10.5 11.5Z" fill="#ACB2C2"/>
</svg>
