<svg width="20" height="20" viewBox="0 0 20 20" fill="none" xmlns="http://www.w3.org/2000/svg">
<mask id="path-1-inside-1_1_1361" fill="white">
<path fill-rule="evenodd" clip-rule="evenodd" d="M15.7984 4.74043C14.1974 3.08652 11.6017 3.08652 10.0007 4.74043L10.0007 4.74047C10.0003 4.74084 9.99974 4.74084 9.99938 4.74047C8.3984 3.08657 5.8027 3.08657 4.20171 4.74047C2.60108 6.39401 2.60073 9.0747 4.20066 10.7287C4.20084 10.7289 4.20084 10.7292 4.20066 10.7294C4.20048 10.7295 4.20048 10.7298 4.20066 10.73L9.63875 16.3479C9.83525 16.5509 10.1608 16.5509 10.3573 16.3479L15.7954 10.73C15.7955 10.7299 15.7957 10.7298 15.7958 10.7298H15.7983C15.7983 10.7298 15.7984 10.7298 15.7984 10.7297C17.3994 9.07584 17.3994 6.39433 15.7984 4.74043Z"/>
</mask>
<path d="M10.0007 4.74043L8.92296 3.69715L8.92285 3.69726L10.0007 4.74043ZM4.20171 4.74047L5.27948 5.78374L4.20171 4.74047ZM15.7984 10.7297L14.7206 9.68645L14.7167 9.69059L15.7984 10.7297ZM9.63875 16.3479L10.7165 15.3046L9.63875 16.3479ZM4.20066 10.73L3.12287 11.7733L3.1229 11.7733L4.20066 10.73ZM4.20066 10.7287L3.12253 11.7716L4.20066 10.7287ZM4.20066 10.7294L3.12294 9.68604L4.20066 10.7294ZM10.0007 4.74047L8.92281 3.69731L10.0007 4.74047ZM9.99938 4.74047L8.92162 5.78375L8.92169 5.78382L9.99938 4.74047ZM11.0785 5.7837C12.09 4.73877 13.7091 4.73877 14.7206 5.7837L16.8762 3.69715C14.6857 1.43428 11.1134 1.43428 8.92296 3.69715L11.0785 5.7837ZM11.0786 5.78363L11.0786 5.78359L8.92285 3.69726L8.92281 3.69731L11.0786 5.78363ZM5.27948 5.78374C6.29098 4.73881 7.91012 4.73881 8.92162 5.78375L11.0771 3.69719C8.88668 1.43432 5.31441 1.43432 3.12395 3.69719L5.27948 5.78374ZM5.27879 9.6858C4.24147 8.61342 4.24171 6.85581 5.27948 5.78374L3.12395 3.69719C0.960449 5.93221 0.959995 9.53598 3.12253 11.7716L5.27879 9.6858ZM3.1229 11.7733L8.56099 17.3912L10.7165 15.3046L5.27843 9.68675L3.1229 11.7733ZM11.435 17.3912L16.8732 11.7733L14.7176 9.68671L9.2795 15.3046L11.435 17.3912ZM15.7983 9.2298H15.7958V12.2298H15.7983V9.2298ZM14.7206 5.7837C15.7586 6.85601 15.7586 8.61415 14.7206 9.68646L16.8762 11.773C19.0401 9.53752 19.0401 5.93265 16.8762 3.69715L14.7206 5.7837ZM15.7983 12.2298C16.2066 12.2298 16.5973 12.0634 16.8801 11.7689L14.7167 9.69059C14.9995 9.3962 15.39 9.2298 15.7983 9.2298V12.2298ZM8.56099 17.3912C9.34696 18.2031 10.6491 18.2031 11.435 17.3912L9.2795 15.3046C9.67249 14.8986 10.3235 14.8986 10.7165 15.3046L8.56099 17.3912ZM3.12294 9.68604C2.55813 10.2695 2.56134 11.1932 3.12287 11.7733L5.27846 9.68678C5.83962 10.2665 5.84284 11.1896 5.27838 11.7727L3.12294 9.68604ZM16.8732 11.7732C16.5907 12.065 16.202 12.2298 15.7958 12.2298V9.2298C15.3894 9.2298 15.0003 9.3947 14.7176 9.68677L16.8732 11.7732ZM3.12253 11.7716C2.56661 11.1969 2.55372 10.274 3.12294 9.68604L5.27838 11.7727C5.84797 11.1843 5.83508 10.2609 5.27879 9.6858L3.12253 11.7716ZM8.92281 3.69731C9.51189 3.08863 10.4879 3.08855 11.0771 3.69712L8.92169 5.78382C9.51158 6.39313 10.4888 6.39304 11.0786 5.78363L8.92281 3.69731Z" fill="#ACB2C2" mask="url(#path-1-inside-1_1_1361)"/>
</svg>
