<svg width="24" height="24" viewBox="0 0 24 24" fill="none" xmlns="http://www.w3.org/2000/svg">
<mask id="path-1-inside-1_1_1360" fill="white">
<path fill-rule="evenodd" clip-rule="evenodd" d="M15.0085 4.50342C13.4876 2.93221 11.0216 2.93221 9.50071 4.50342L9.5007 4.50343C9.50036 4.50379 9.49979 4.50379 9.49944 4.50343C7.97851 2.93222 5.51259 2.93222 3.99165 4.50343C2.47106 6.07428 2.47072 8.62091 3.99062 10.1922C3.99079 10.1924 3.99079 10.1927 3.99062 10.1929C3.99044 10.193 3.99044 10.1933 3.99062 10.1935L3.99062 10.1935L9.1568 15.5305C9.34346 15.7233 9.65271 15.7233 9.83938 15.5305L15.0056 10.1935C15.0057 10.1934 15.0058 10.1933 15.006 10.1933H15.0084C15.0084 10.1933 15.0085 10.1933 15.0085 10.1933C16.5294 8.62206 16.5294 6.07463 15.0085 4.50342Z"/>
</mask>
<path fill-rule="evenodd" clip-rule="evenodd" d="M15.0085 4.50342C13.4876 2.93221 11.0216 2.93221 9.50071 4.50342L9.5007 4.50343C9.50036 4.50379 9.49979 4.50379 9.49944 4.50343C7.97851 2.93222 5.51259 2.93222 3.99165 4.50343C2.47106 6.07428 2.47072 8.62091 3.99062 10.1922C3.99079 10.1924 3.99079 10.1927 3.99062 10.1929C3.99044 10.193 3.99044 10.1933 3.99062 10.1935L3.99062 10.1935L9.1568 15.5305C9.34346 15.7233 9.65271 15.7233 9.83938 15.5305L15.0056 10.1935C15.0057 10.1934 15.0058 10.1933 15.006 10.1933H15.0084C15.0084 10.1933 15.0085 10.1933 15.0085 10.1933C16.5294 8.62206 16.5294 6.07463 15.0085 4.50342Z" fill="#F8F6FE"/>
<path d="M9.50071 4.50342L10.5245 5.49463L10.5246 5.49453L9.50071 4.50342ZM15.0085 4.50342L16.0324 3.51231L16.0324 3.51231L15.0085 4.50342ZM3.99165 4.50343L5.01553 5.49454V5.49454L3.99165 4.50343ZM3.99062 10.1935L5.0145 9.2024L5.01434 9.20224L3.99062 10.1935ZM15.0085 10.1933L16.0277 11.1893L16.0324 11.1844L15.0085 10.1933ZM9.83938 15.5305L8.8155 14.5393L9.83938 15.5305ZM3.99062 10.1935L2.9669 11.1848L3.99062 10.1935ZM15.0056 10.1935L13.9829 9.20113L13.9817 9.20234L15.0056 10.1935ZM3.99062 10.1922L2.96638 11.1829L3.99062 10.1922ZM3.99062 10.1929L2.96688 9.2016L3.99062 10.1929ZM9.5007 4.50343L8.47693 3.51221L9.5007 4.50343ZM9.49944 4.50343L10.5235 3.51247L10.5233 3.51231L9.49944 4.50343ZM10.5246 5.49453C11.4855 4.50184 13.0237 4.50184 13.9846 5.49453L16.0324 3.51231C13.9514 1.36258 10.5578 1.36258 8.47684 3.5123L10.5246 5.49453ZM10.5245 5.49464L10.5245 5.49463L8.47694 3.5122L8.47693 3.51221L10.5245 5.49464ZM5.01553 5.49454C5.97646 4.50185 7.51464 4.50185 8.47557 5.49454L10.5233 3.51231C8.44238 1.36259 5.04872 1.36259 2.96778 3.51231L5.01553 5.49454ZM5.01486 9.20146C4.02942 8.1827 4.02966 6.51299 5.01553 5.49454L2.96778 3.51231C0.912468 5.63556 0.912019 9.05911 2.96638 11.1829L5.01486 9.20146ZM2.9669 11.1848L2.9669 11.1848L5.01434 9.20224L5.01434 9.20224L2.9669 11.1848ZM2.96675 11.1846L8.13292 16.5216L10.1807 14.5393L5.0145 9.2024L2.96675 11.1846ZM10.8633 16.5216L16.0295 11.1846L13.9817 9.20234L8.8155 14.5393L10.8633 16.5216ZM15.0084 8.76831H15.006V11.6183H15.0084V8.76831ZM13.9846 5.49453C14.9707 6.51323 14.9707 8.18346 13.9846 9.20215L16.0324 11.1844C18.0881 9.06066 18.0881 5.63603 16.0324 3.51231L13.9846 5.49453ZM15.0084 11.6183C15.392 11.6183 15.7595 11.4636 16.0276 11.1892L13.9894 9.19729C14.2574 8.92296 14.6248 8.76831 15.0084 8.76831V11.6183ZM8.13292 16.5216C8.87959 17.2929 10.1166 17.2929 10.8633 16.5216L8.8155 14.5393C9.18884 14.1537 9.80733 14.1537 10.1807 14.5393L8.13292 16.5216ZM2.96688 9.2016C2.43168 9.75434 2.43169 10.6321 2.9669 11.1848L5.01434 9.20224C5.5492 9.7546 5.5492 10.6317 5.01436 11.1841L2.96688 9.2016ZM16.0283 11.1858C15.76 11.4623 15.3912 11.6183 15.006 11.6183V8.76831C14.6204 8.76831 14.2514 8.92445 13.9829 9.20113L16.0283 11.1858ZM2.96638 11.1829C2.43823 10.6369 2.42603 9.76017 2.96688 9.2016L5.01436 11.1841C5.55556 10.6252 5.54335 9.74783 5.01486 9.20146L2.96638 11.1829ZM8.47693 3.51221C9.03667 2.93409 9.96388 2.93421 10.5235 3.51247L8.47541 5.49438C9.0357 6.07336 9.96405 6.07348 10.5245 5.49464L8.47693 3.51221Z" fill="#ACB2C2" mask="url(#path-1-inside-1_1_1360)"/>
</svg>
