<svg width="24" height="24" viewBox="0 0 24 24" fill="none" xmlns="http://www.w3.org/2000/svg">
<g opacity="0.6">
<path fill-rule="evenodd" clip-rule="evenodd" d="M15.1943 17H14.475H9.59995H8.80274L8.3567 16.3392L9.59995 15.5H11.2453V9C11.2453 8.58579 11.5811 8.25 11.9953 8.25C12.4095 8.25 12.7453 8.58579 12.7453 9V15.5H14.475L15.6446 16.4391L15.1943 17ZM15.6451 16.4385C15.6448 16.4388 15.6446 16.4391 14.475 15.5C14.475 15.5 15.9804 13.625 16.4225 11.125C16.8645 8.625 15.4168 5.5 12.0363 5.5C8.65572 5.5 6.96569 8.625 7.64997 11.125C8.33425 13.625 9.59995 15.5 9.59995 15.5C8.3567 16.3392 8.35655 16.339 8.35639 16.3388L8.35604 16.3383L8.35526 16.3371L8.35336 16.3343L8.34818 16.3265L8.33248 16.3028C8.3197 16.2834 8.30236 16.2568 8.2809 16.2233C8.23801 16.1563 8.17862 16.0616 8.10643 15.9417C7.96222 15.7021 7.76596 15.3604 7.54775 14.9363C7.11377 14.0928 6.58055 12.8997 6.20319 11.521C5.29732 8.21144 7.52085 4 12.0363 4C14.253 4 15.9176 5.05307 16.9109 6.54289C17.8695 7.98074 18.1829 9.78366 17.8995 11.3862C17.6407 12.8502 17.0775 14.1035 16.5959 14.9754C16.3526 15.4156 16.1237 15.7702 15.9522 16.0191C15.8663 16.1438 15.7943 16.2427 15.7414 16.3134C15.7149 16.3487 15.6932 16.3771 15.6769 16.3981L15.6565 16.4242L15.6494 16.4331L15.6467 16.4364L15.6456 16.4379L15.6451 16.4385ZM14.9985 18H8.9985V18.4263C8.9985 19.2954 9.70306 20 10.5722 20H13.4248C14.2939 20 14.9985 19.2954 14.9985 18.4263V18Z" fill="#78829C"/>
</g>
</svg>
