<svg width="20" height="20" viewBox="0 0 20 20" fill="none" xmlns="http://www.w3.org/2000/svg">
<circle cx="10" cy="10" r="7.5" stroke="#383B44"/>
<path d="M7.97434 14C7.56634 14 7.36234 13.812 7.36234 13.436C7.36234 13.236 7.47034 13.02 7.68634 12.788L10.2423 10.052C10.6343 9.636 10.9143 9.256 11.0823 8.912C11.2583 8.56 11.3463 8.208 11.3463 7.856C11.3463 6.944 10.8103 6.488 9.73834 6.488C9.41834 6.488 9.10634 6.536 8.80234 6.632C8.50634 6.728 8.21434 6.884 7.92634 7.1C7.78234 7.204 7.64634 7.24 7.51834 7.208C7.39834 7.168 7.30234 7.088 7.23034 6.968C7.16634 6.848 7.14234 6.72 7.15834 6.584C7.18234 6.44 7.26634 6.316 7.41034 6.212C7.73834 5.964 8.11834 5.772 8.55034 5.636C8.98234 5.5 9.42234 5.432 9.87034 5.432C10.7423 5.432 11.4103 5.632 11.8743 6.032C12.3463 6.432 12.5823 7.004 12.5823 7.748C12.5823 8.252 12.4583 8.744 12.2103 9.224C11.9703 9.704 11.5903 10.216 11.0703 10.76L8.97034 12.956H12.4623C12.8303 12.956 13.0143 13.128 13.0143 13.472C13.0143 13.824 12.8303 14 12.4623 14H7.97434Z" fill="#383B44"/>
</svg>
