<svg width="20" height="20" viewBox="0 0 20 20" fill="none" xmlns="http://www.w3.org/2000/svg">
<circle cx="10" cy="10" r="7.5" stroke="#383B44"/>
<path d="M9.87034 14.108C9.42234 14.108 8.96234 14.048 8.49034 13.928C8.02634 13.808 7.62634 13.62 7.29034 13.364C7.13034 13.26 7.03434 13.136 7.00234 12.992C6.97034 12.848 6.98634 12.72 7.05034 12.608C7.11434 12.488 7.21434 12.408 7.35034 12.368C7.48634 12.328 7.63834 12.36 7.80634 12.464C8.15034 12.672 8.48634 12.824 8.81434 12.92C9.14234 13.008 9.48234 13.052 9.83434 13.052C10.4103 13.052 10.8463 12.928 11.1423 12.68C11.4463 12.432 11.5983 12.076 11.5983 11.612C11.5983 11.148 11.4463 10.804 11.1423 10.58C10.8463 10.356 10.4143 10.244 9.84634 10.244H9.03034C8.65434 10.244 8.46634 10.068 8.46634 9.716C8.46634 9.372 8.65434 9.2 9.03034 9.2H9.72634C10.2303 9.2 10.6263 9.072 10.9143 8.816C11.2103 8.56 11.3583 8.208 11.3583 7.76C11.3583 7.352 11.2223 7.04 10.9503 6.824C10.6783 6.6 10.2903 6.488 9.78634 6.488C9.45034 6.488 9.13834 6.532 8.85034 6.62C8.56234 6.708 8.26234 6.864 7.95034 7.088C7.79834 7.184 7.65834 7.216 7.53034 7.184C7.40234 7.144 7.30234 7.068 7.23034 6.956C7.16634 6.836 7.14634 6.708 7.17034 6.572C7.19434 6.428 7.28234 6.304 7.43434 6.2C7.77034 5.952 8.14634 5.764 8.56234 5.636C8.98634 5.5 9.42634 5.432 9.88234 5.432C10.7303 5.432 11.3903 5.628 11.8623 6.02C12.3343 6.404 12.5703 6.94 12.5703 7.628C12.5703 8.092 12.4503 8.5 12.2103 8.852C11.9783 9.204 11.6543 9.46 11.2383 9.62C11.7423 9.748 12.1303 9.996 12.4023 10.364C12.6743 10.724 12.8103 11.168 12.8103 11.696C12.8103 12.44 12.5463 13.028 12.0183 13.46C11.4983 13.892 10.7823 14.108 9.87034 14.108Z" fill="#383B44"/>
</svg>
