<svg width="20" height="20" viewBox="0 0 20 20" fill="none" xmlns="http://www.w3.org/2000/svg">
<circle cx="10" cy="10" r="7.5" stroke="#383B44"/>
<path d="M8.26234 14C7.90234 14 7.72234 13.824 7.72234 13.472C7.72234 13.128 7.90234 12.956 8.26234 12.956H9.72634V6.968L8.59834 7.688C8.44634 7.784 8.30234 7.812 8.16634 7.772C8.03834 7.724 7.93834 7.64 7.86634 7.52C7.80234 7.4 7.78234 7.272 7.80634 7.136C7.83834 6.992 7.93034 6.872 8.08234 6.776L9.73834 5.732C9.87434 5.652 10.0023 5.588 10.1223 5.54C10.2503 5.484 10.3703 5.456 10.4823 5.456C10.6183 5.456 10.7303 5.496 10.8183 5.576C10.9143 5.656 10.9623 5.78 10.9623 5.948V12.956H12.3063C12.6743 12.956 12.8583 13.128 12.8583 13.472C12.8583 13.824 12.6743 14 12.3063 14H8.26234Z" fill="#383B44"/>
</svg>
