<svg width="24" height="24" viewBox="0 0 24 24" fill="none" xmlns="http://www.w3.org/2000/svg">
<path fill-rule="evenodd" clip-rule="evenodd" d="M12 20C16.4183 20 20 16.4183 20 12C20 7.58172 16.4183 4 12 4C7.58172 4 4 7.58172 4 12C4 16.4183 7.58172 20 12 20Z" fill="#ACB2C2"/>
<path d="M12.6919 14.0737H10.8701C10.8701 13.7013 10.8955 13.3734 10.9463 13.0898C11.0013 12.8021 11.0944 12.5439 11.2256 12.3154C11.3568 12.0869 11.5345 11.8753 11.7588 11.6807C11.9577 11.5156 12.1291 11.3569 12.2729 11.2046C12.4168 11.0522 12.5269 10.8978 12.603 10.7412C12.6792 10.5846 12.7173 10.4175 12.7173 10.2397C12.7173 10.0197 12.6855 9.83984 12.6221 9.7002C12.5628 9.56055 12.4718 9.45687 12.3491 9.38916C12.2306 9.31722 12.0804 9.28125 11.8984 9.28125C11.7503 9.28125 11.6107 9.31722 11.4795 9.38916C11.3525 9.4611 11.2489 9.57324 11.1685 9.72559C11.0881 9.8737 11.0436 10.0705 11.0352 10.3159H8.8833C8.896 9.68538 9.03564 9.17334 9.30225 8.77979C9.57308 8.382 9.93278 8.09212 10.3813 7.91016C10.8341 7.72396 11.3398 7.63086 11.8984 7.63086C12.5163 7.63086 13.0474 7.72607 13.4917 7.9165C13.936 8.10693 14.2767 8.39046 14.5137 8.76709C14.7507 9.13949 14.8691 9.59863 14.8691 10.1445C14.8691 10.5085 14.7993 10.8258 14.6597 11.0967C14.5243 11.3633 14.3402 11.613 14.1074 11.8457C13.8789 12.0742 13.6229 12.3197 13.3394 12.582C13.0939 12.7979 12.9268 13.0179 12.8379 13.2422C12.749 13.4622 12.7004 13.7394 12.6919 14.0737ZM10.6099 16.0034C10.6099 15.6987 10.7199 15.4448 10.9399 15.2417C11.16 15.0343 11.4456 14.9307 11.7969 14.9307C12.1481 14.9307 12.4338 15.0343 12.6538 15.2417C12.8739 15.4448 12.9839 15.6987 12.9839 16.0034C12.9839 16.3081 12.8739 16.5641 12.6538 16.7715C12.4338 16.9746 12.1481 17.0762 11.7969 17.0762C11.4456 17.0762 11.16 16.9746 10.9399 16.7715C10.7199 16.5641 10.6099 16.3081 10.6099 16.0034Z" fill="white"/>
</svg>
