<svg width="24" height="24" viewBox="0 0 24 24" fill="none" xmlns="http://www.w3.org/2000/svg">
<path d="M15 9.00042L11.7867 14.1974C11.6334 14.4452 11.7466 14.7713 12.0204 14.8709C12.2498 14.9544 12.5044 14.844 12.6003 14.6196L15 9.00042Z" fill="#C4C4C4"/>
<path fill-rule="evenodd" clip-rule="evenodd" d="M17.0658 18.2472C17.2918 18.3183 17.5421 18.2746 17.7148 18.0983C19.1284 16.6554 20 14.6795 20 12.5C20 8.08172 16.4183 4.5 12 4.5C7.58172 4.5 4 8.08172 4 12.5C4 14.6795 4.87156 16.6554 6.28516 18.0983C6.45788 18.2746 6.70818 18.3183 6.93416 18.2472C6.95586 18.249 6.97782 18.25 7 18.25H17C17.0222 18.25 17.0441 18.249 17.0658 18.2472ZM18.4236 11.5H17.5C16.9477 11.5 16.5 11.9477 16.5 12.5C16.5 13.0523 16.9477 13.5 17.5 13.5H18.4236C18.2334 14.7315 17.6975 15.849 16.9182 16.75H7.08178C6.30247 15.849 5.76661 14.7315 5.57645 13.5H6.5C7.05228 13.5 7.5 13.0523 7.5 12.5C7.5 11.9477 7.05228 11.5 6.5 11.5H5.57645C6.00712 8.71088 8.21088 6.50712 11 6.07645V7C11 7.55228 11.4477 8 12 8C12.5523 8 13 7.55228 13 7V6.07645C15.7891 6.50712 17.9929 8.71088 18.4236 11.5ZM15.3454 8.83425C15.6937 9.015 15.8438 9.43365 15.6897 9.79451L13.2899 15.4137C13.0376 16.0044 12.3675 16.2949 11.7638 16.0752C11.0432 15.8129 10.7454 14.9548 11.1487 14.3025L14.3621 9.10552C14.5684 8.77178 14.9971 8.65351 15.3454 8.83425Z" fill="#ACB2C2"/>
</svg>
