<svg width="24" height="24" viewBox="0 0 24 24" fill="none" xmlns="http://www.w3.org/2000/svg">
<path d="M10.7593 9.34485L11 8.94758L11.2407 9.34485C11.4147 9.63222 11.6972 9.83742 12.0242 9.91417L12.4764 10.0203L12.173 10.3719C11.9535 10.6263 11.8456 10.9583 11.8737 11.2931L11.9125 11.7559L11.4843 11.576C11.1745 11.4458 10.8255 11.4458 10.5157 11.576L10.0875 11.7559L10.1263 11.2931C10.1544 10.9583 10.0465 10.6263 9.82703 10.3719L9.52356 10.0203L9.97576 9.91417C10.3029 9.83742 10.5853 9.63222 10.7593 9.34485Z" fill="#ACB2C2" stroke="#ACB2C2" stroke-width="1.5"/>
<rect x="6.25" y="5.25" width="11.5" height="13.5" rx="1.25" stroke="#ACB2C2" stroke-width="1.5"/>
<rect x="8.5" y="14.5" width="7" height="1.5" rx="0.75" fill="#ACB2C2"/>
</svg>
