<svg width="24" height="24" viewBox="0 0 24 24" fill="none" xmlns="http://www.w3.org/2000/svg">
<path fill-rule="evenodd" clip-rule="evenodd" d="M7.5 18H16.5C16.7761 18 17 17.7761 17 17.5V9.62062C17 9.48705 16.9466 9.35904 16.8516 9.26512L13.6963 6.1445C13.6027 6.05192 13.4764 6 13.3447 6H7.5C7.22386 6 7 6.22386 7 6.5V17.5C7 17.7761 7.22386 18 7.5 18ZM16.5 19.5H7.5C6.39543 19.5 5.5 18.6046 5.5 17.5V6.5C5.5 5.39543 6.39543 4.5 7.5 4.5H13.3447C13.8713 4.5 14.3767 4.70769 14.7511 5.07799L17.9064 8.19862C18.2862 8.5743 18.5 9.08636 18.5 9.62062V17.5C18.5 18.6046 17.6046 19.5 16.5 19.5ZM8.5 11.75C8.5 11.3358 8.83579 11 9.25 11H14.75C15.1642 11 15.5 11.3358 15.5 11.75C15.5 12.1642 15.1642 12.5 14.75 12.5H9.25C8.83579 12.5 8.5 12.1642 8.5 11.75ZM9.25 14C8.83579 14 8.5 14.3358 8.5 14.75C8.5 15.1642 8.83579 15.5 9.25 15.5H12.75C13.1642 15.5 13.5 15.1642 13.5 14.75C13.5 14.3358 13.1642 14 12.75 14H9.25Z" fill="#78829C" fill-opacity="0.6"/>
</svg>
