<svg width="21" height="21" viewBox="0 0 21 21" fill="none" xmlns="http://www.w3.org/2000/svg">
<path fill-rule="evenodd" clip-rule="evenodd" d="M5.43793 10.2788C5.43793 12.9425 7.5648 15.069 10.1482 15.069C11.3381 15.069 12.4241 14.6221 13.2562 13.8782C14.238 13.0005 14.8584 11.7163 14.8584 10.2788C14.8584 7.61514 12.7315 5.48865 10.1482 5.48865C7.5648 5.48865 5.43793 7.61514 5.43793 10.2788ZM14.256 14.9965C15.5452 13.8439 16.3584 12.1575 16.3584 10.2788C16.3584 6.80486 13.578 3.98865 10.1482 3.98865C6.71834 3.98865 3.93793 6.80486 3.93793 10.2788C3.93793 13.7528 6.71834 16.569 10.1482 16.569C11.7231 16.569 13.1612 15.9752 14.256 14.9965Z" fill="#ACB2C2"/>
<path d="M20 9.99289L0.550537 9.70697" stroke="#ACB2C2" stroke-width="1.5"/>
<path d="M9.8659 0.300136L9.58362 20" stroke="#ACB2C2" stroke-width="1.5"/>
</svg>
